<svg width="499" height="455" viewBox="0 0 499 455" fill="none" xmlns="http://www.w3.org/2000/svg">
<path d="M460.57 361.55L379.867 326.859C378.351 325.953 377.062 324.726 376.086 323.265L427.145 323.226C428.113 323.316 450.68 325.367 468.829 317.632C472.364 316.105 475.508 313.816 478.04 310.933C480.575 308.046 482.426 304.64 483.469 300.96C484.508 297.277 484.715 293.41 484.063 289.64C483.415 285.867 481.926 282.289 479.711 279.16C464.387 257.523 428.618 201.015 427.505 143.73C427.477 142.727 423.809 43.3104 325.204 42.5004C311.962 42.52 298.813 44.7543 286.317 49.102C283.403 42.0708 279.345 35.559 274.301 29.829C257.063 10.302 229.165 0.395035 191.404 0.395035C153.638 0.395035 125.735 10.2895 108.489 29.817C88.6965 52.204 90.3295 79.192 90.8445 84.239V127.282C85.5476 133.43 82.6218 141.247 82.5906 149.341V182.122C82.5867 187.149 83.7078 192.118 85.8758 196.665C88.0399 201.212 91.2 205.224 95.1219 208.411C100.809 229.72 110.575 249.743 123.88 267.391V294.02C123.88 297.649 122.896 301.211 121.028 304.332C119.161 307.453 116.481 310.016 113.27 311.754L39.5985 351.641C27.6145 358.121 17.6105 367.692 10.6415 379.34C3.67249 390.988 -0.00350846 404.285 0.000491542 417.832V454.004H498.401V422.266C498.44 409.645 494.92 397.27 488.232 386.539C481.545 375.805 471.967 367.148 460.573 361.543L460.57 361.55ZM340.8 352.034L285.347 324.503C286.124 322.156 286.331 319.664 285.948 317.222C285.566 314.785 284.609 312.468 283.152 310.468C281.695 308.464 279.781 306.835 277.566 305.71C275.355 304.582 272.902 303.992 270.413 303.988H253.018C252.94 303.796 252.862 303.605 252.788 303.414L252.167 301.984C251.862 301.374 251.608 300.742 251.405 300.093C250.921 298.371 250.671 296.589 250.663 294.8V267.601C252.436 265.429 254.343 262.918 256.331 260.125C266.663 245.578 274.87 229.648 280.71 212.82C286.538 210.034 291.456 205.683 294.905 200.254C298.35 194.828 300.19 188.547 300.206 182.129V149.363C300.182 141.273 297.257 133.453 291.952 127.304L291.94 84.4127C292.425 78.8268 292.245 73.2057 291.413 67.6627C302.245 63.7447 313.69 61.7525 325.218 61.7838C405.21 62.44 408.007 140.8 408.085 144.132C409.311 206.683 447.472 267.142 463.823 290.242C464.389 291.039 464.768 291.953 464.928 292.914C465.092 293.875 465.034 294.859 464.76 295.796C464.518 296.707 464.065 297.55 463.444 298.261C462.823 298.972 462.045 299.531 461.17 299.898C449.643 304.808 434.483 304.398 428.515 304.007L371.241 303.988C368.406 303.988 365.62 304.707 363.144 306.07C360.663 307.437 358.577 309.406 357.081 311.793C355.585 314.179 354.726 316.906 354.585 319.718C354.445 322.527 355.027 325.324 356.277 327.847C360.183 335.66 365.339 341.191 371.664 344.312L452.074 378.886C460.179 382.917 466.992 389.116 471.742 396.781C476.495 404.445 478.996 413.273 478.968 422.273V434.746H382.777V419.441C382.824 405.437 378.918 391.699 371.496 379.785C364.078 367.871 353.445 358.258 340.801 352.035L340.8 352.034ZM143.3 294.046V260.577L141.034 257.886C127.796 240.948 118.304 221.433 113.175 200.609L112.293 196.777L108.98 194.664C106.851 193.324 105.097 191.476 103.878 189.285C102.66 187.097 102.015 184.636 102.003 182.136V149.363C102.015 147.278 102.472 145.215 103.339 143.316C104.21 141.418 105.476 139.723 107.054 138.34L110.261 135.48V83.7035L110.175 82.5473C109.917 80.2387 108.097 59.5003 123.081 42.5243C136.479 27.3683 159.464 19.6763 191.39 19.6763C223.214 19.6763 246.148 27.3169 259.554 42.3753C265.304 48.9026 269.3 56.7663 271.175 65.2303C271.304 65.7928 271.425 66.3514 271.535 66.8944L271.621 67.3241C271.706 67.7421 271.788 68.1483 271.859 68.5624L272.32 71.664C272.445 72.6445 272.535 73.6132 272.613 74.707C272.671 75.5664 272.706 76.3867 272.73 77.0859V77.5468C272.753 78.207 272.753 78.828 272.742 79.6249C272.714 81.2851 272.613 82.3476 272.574 82.7382L272.511 135.476L275.714 138.347C277.296 139.722 278.562 141.414 279.437 143.316C280.308 145.215 280.761 147.273 280.773 149.359V182.132C280.757 185.324 279.706 188.429 277.777 190.98C275.847 193.535 273.14 195.402 270.054 196.308L265.218 197.777L263.663 202.558C258.359 219.12 250.534 234.777 240.452 248.988C238.335 252.007 236.062 254.922 233.64 257.711L231.222 260.449V294.804C231.234 296.925 231.417 299.038 231.769 301.128C231.812 301.417 231.878 301.698 231.945 301.976L232.046 302.437C232.378 304.144 232.82 305.827 233.374 307.48L233.784 308.609C234.476 310.437 235.292 312.21 236.238 313.921L236.441 314.312C237.671 316.488 239.113 318.534 240.741 320.433L242.62 322.741L243.378 323.273H243.484C246.359 326.034 249.64 328.351 253.21 330.144L332.097 369.277C341.511 373.906 349.433 381.058 354.956 389.925C360.48 398.792 363.39 409.019 363.351 419.448V434.749H19.4407V417.847C19.4329 407.769 22.1673 397.874 27.3509 389.21C32.5345 380.542 39.9759 373.429 48.8979 368.608L122.566 328.721C128.847 325.326 134.086 320.315 137.738 314.209C141.386 308.107 143.308 301.139 143.304 294.045L143.3 294.046Z" fill="black"/>
</svg>
