<svg width="542" height="332" viewBox="0 0 542 332" fill="none" xmlns="http://www.w3.org/2000/svg">
<path fill-rule="evenodd" clip-rule="evenodd" d="M532.998 160.464C532.455 161.796 531.393 162.851 530.053 163.378L454.651 193.726C453.319 194.269 451.823 194.254 450.503 193.683C449.167 193.121 448.108 192.051 447.557 190.711L389.932 47.5308V47.5268C388.839 44.7377 390.174 41.5854 392.944 40.433L468.346 10.085C468.994 9.81942 469.69 9.6827 470.393 9.6827C472.616 9.67879 474.616 11.0343 475.436 13.1007L533.061 156.291H533.065C533.62 157.63 533.6 159.142 533.01 160.467L532.998 160.464ZM422.248 191.601C426.393 188.433 430.635 185.164 434.978 182.117L388.736 67.2069C379.967 68.8202 370.966 68.6991 362.244 66.8475C340.771 63.8358 322.599 61.5233 308.314 60.0506V60.0467C286.435 57.3944 264.521 64.6873 248.591 79.9177L230.911 96.2187C225.626 100.805 222.466 107.367 222.177 114.356C220.423 127.602 217.361 140.774 214.583 152.395C211.857 162.524 209.935 172.848 208.837 183.278C209.067 183.586 209.411 183.789 209.79 183.84C234.157 187.875 251.587 171.531 257.528 139.004C258.45 133.981 262.052 129.868 266.903 128.285C271.759 126.703 277.087 127.902 280.794 131.414L369.763 215.937C390.036 216.179 405.716 204.226 422.247 191.582L422.248 191.601ZM383.643 259.089C381.237 261.812 377.839 263.457 374.21 263.648C370.577 263.906 366.999 262.667 364.296 260.226L304.718 207.359H304.722C302.972 205.812 300.304 205.976 298.761 207.726C297.214 209.472 297.378 212.144 299.128 213.687L358.655 266.57V266.566C364.26 271.621 364.772 280.238 359.799 285.914C354.752 291.559 346.1 292.067 340.428 287.059L280.303 233.653V233.657C278.553 232.098 275.874 232.25 274.319 233.996C272.76 235.746 272.913 238.426 274.659 239.985L324.636 284.387H324.64C327.511 286.754 329.296 290.184 329.585 293.895C329.874 297.605 328.644 301.27 326.171 304.055C323.702 306.836 320.206 308.492 316.487 308.644C312.768 308.797 309.151 307.43 306.46 304.859L262.87 266.171C261.124 264.624 258.456 264.788 256.909 266.538C255.366 268.284 255.53 270.952 257.277 272.499L287.687 299.511C293.089 304.601 293.464 313.066 288.526 318.609C283.589 324.156 275.139 324.765 269.46 319.984L251.261 303.851L255.261 298.39C258.601 293.871 260.097 288.249 259.445 282.663C258.793 277.081 256.043 271.952 251.754 268.323C247.461 264.691 241.949 262.827 236.336 263.112C238.601 258.925 239.425 254.109 238.675 249.405C237.816 243.589 234.671 238.354 229.937 234.866C225.203 231.378 219.269 229.925 213.46 230.831C213.214 230.874 212.968 230.933 212.667 230.987H212.663C213.687 224.62 211.886 218.124 207.73 213.19C203.577 208.261 197.48 205.386 191.031 205.315C184.581 205.245 178.422 207.991 174.164 212.831C172.703 207.437 169.261 202.792 164.523 199.827C159.785 196.862 154.101 195.796 148.613 196.843C143.125 197.89 138.23 200.968 134.914 205.468L132.613 208.6V208.597C129.371 205.335 126.477 201.741 123.98 197.874C119.973 190.87 113.863 185.304 106.515 181.964L156.206 58.6236C182.87 79.2286 197.304 80.5536 227.663 83.3116L231.956 83.7022L225.163 89.9874V89.9913C218.421 95.9132 214.319 104.276 213.761 113.229C212.062 126.065 209.023 139.026 206.324 150.456C203.472 161.065 201.484 171.894 200.379 182.827C200.265 187.515 203.695 191.542 208.34 192.179C221.098 194.644 234.289 191.273 244.297 182.984C255.035 174.03 262.269 159.742 265.816 140.519C266.102 138.523 267.523 136.874 269.461 136.304C271.348 135.636 273.453 136.105 274.879 137.507L382.399 239.637C388.024 244.707 388.579 253.34 383.645 259.086L383.643 259.089ZM230.343 311.144C233.945 310.617 237.179 308.664 239.328 305.726L248.468 293.347C252.875 287.218 251.562 278.695 245.523 274.171C239.433 269.714 230.882 271.019 226.398 277.093L217.257 289.491C213.957 293.948 213.672 299.956 216.539 304.702C219.41 309.452 224.863 311.991 230.344 311.14L230.343 311.144ZM202.175 295.718L210.418 284.484L227.844 260.843C230.008 257.921 230.89 254.25 230.289 250.663C229.765 247.066 227.824 243.831 224.898 241.675C221.972 239.519 218.304 238.62 214.71 239.187C211.116 239.734 207.882 241.683 205.722 244.609L180.038 279.472C175.643 285.597 176.952 294.113 182.983 298.632C189.089 303.1 197.655 301.8 202.155 295.718L202.175 295.718ZM161.331 283.831C164.933 283.304 168.171 281.351 170.316 278.413L173.265 274.445L201.824 235.577V235.574C205.148 231.12 205.445 225.097 202.574 220.34C199.703 215.582 194.238 213.035 188.746 213.898C185.144 214.422 181.902 216.375 179.758 219.316L170.664 231.703L157.418 249.769H157.363L148.246 262.179C144.93 266.636 144.637 272.656 147.508 277.413C150.379 282.167 155.844 284.714 161.332 283.855L161.331 283.831ZM131.366 247.702C137.472 252.171 146.034 250.87 150.538 244.792L163.823 226.726V226.73C168.312 220.636 167.011 212.054 160.917 207.566C154.823 203.078 146.245 204.379 141.753 210.472L128.468 228.538L128.472 228.534C124.007 234.632 125.3 243.186 131.367 247.69L131.366 247.702ZM94.3623 189.499L151.987 46.3093H151.991C153.097 43.5202 151.753 40.3601 148.98 39.2195L73.5775 8.87152C70.7884 7.75432 67.6205 9.10198 66.4877 11.8832L8.87073 155.073C7.76523 157.862 9.10901 161.019 11.8824 162.159L87.2844 192.507C88.6164 193.046 90.1086 193.027 91.425 192.456C92.7648 191.894 93.8273 190.824 94.3781 189.48L94.3623 189.499ZM540.942 153.136L483.266 9.93631C481.919 6.49881 479.235 3.75271 475.825 2.33081C472.438 0.877714 468.606 0.838612 465.192 2.22925L389.786 32.5653C382.665 35.4481 379.224 43.5492 382.095 50.6702L385.489 59.1469V59.1508C378.325 60.2758 371.009 60.0726 363.915 58.5492C363.802 58.5179 363.685 58.4984 363.567 58.4867C341.891 55.4281 323.571 53.1156 309.137 51.6273C284.86 48.8265 260.586 56.9007 242.825 73.6863L240.325 75.991C236.111 75.5652 232.138 75.2098 228.438 74.8777C197.333 72.0418 185.395 70.9519 159.43 50.4557L159.829 49.4557C162.7 42.3307 159.258 34.2257 152.137 31.3427L76.7314 0.998699C69.6142 -1.849 61.5324 1.60026 58.6694 8.7135L0.981403 151.903C-1.835 159.04 1.61422 167.114 8.71971 170.016L84.1257 200.36C85.7585 201.021 87.5046 201.364 89.2702 201.364C91.1569 201.36 93.0241 200.982 94.7585 200.243C98.1491 198.794 100.825 196.064 102.204 192.646L103.348 189.829C109.134 192.591 113.914 197.087 117.032 202.688C120.032 207.348 123.571 211.633 127.571 215.465L121.63 223.504C118.38 227.93 116.888 233.399 117.438 238.859C117.989 244.32 120.544 249.379 124.61 253.066C128.677 256.754 133.966 258.801 139.454 258.816C139.755 258.816 140.056 258.816 140.357 258.785C137.615 263.277 136.568 268.601 137.392 273.801C138.22 279 140.872 283.735 144.876 287.153C148.876 290.575 153.962 292.458 159.228 292.469C160.365 292.462 161.498 292.376 162.623 292.204C164.881 291.868 167.072 291.177 169.115 290.157C169.721 295.548 172.291 300.528 176.334 304.141C180.381 307.758 185.615 309.754 191.041 309.75C192.178 309.754 193.314 309.664 194.435 309.485C199.154 308.782 203.513 306.571 206.869 303.18C208.1 308.125 211.037 312.477 215.162 315.465C218.948 318.266 223.533 319.77 228.24 319.766C229.377 319.762 230.514 319.672 231.635 319.504C237.455 318.637 242.69 315.481 246.174 310.738L246.221 310.668L263.901 326.356V326.352C267.936 329.962 273.166 331.946 278.581 331.923C279.026 331.923 279.479 331.923 279.928 331.887C285.8 331.544 291.295 328.884 295.205 324.493C298.502 320.77 300.44 316.036 300.698 311.071L300.85 311.208H300.846C305.252 315.102 311.022 317.094 316.889 316.743C322.76 316.395 328.248 313.731 332.159 309.341C335.565 305.532 337.526 300.649 337.706 295.54C341.249 297.778 345.35 298.961 349.538 298.961C349.991 298.961 350.436 298.961 350.886 298.918C356.761 298.586 362.261 295.93 366.167 291.536C370.073 287.137 372.069 281.368 371.71 275.497C371.6 274.329 371.417 273.169 371.163 272.028C371.909 272.086 372.608 272.129 373.362 272.129C373.807 272.129 374.26 272.129 374.71 272.086C380.581 271.766 386.081 269.11 389.983 264.711C393.815 260.305 395.776 254.582 395.447 248.754C395.123 242.926 392.537 237.457 388.237 233.508L378.147 223.907C397.272 221.348 412.553 209.673 427.385 198.329C430.924 195.606 434.576 192.825 438.225 190.2L439.725 193.86H439.721C441.096 197.29 443.771 200.032 447.166 201.485C448.904 202.216 450.768 202.595 452.654 202.606C454.435 202.602 456.197 202.259 457.846 201.595L533.201 171.24C540.306 168.345 543.76 160.271 540.943 153.135L540.942 153.136Z" fill="black"/>
</svg>
