<svg width="505" height="469" viewBox="0 0 505 469" fill="none" xmlns="http://www.w3.org/2000/svg">
<path d="M504 312.28C503.988 311.03 503.363 309.866 502.32 309.171L379.48 226.925C379.609 192.386 379.82 134.554 379.82 119.545C379.82 96.9786 356.086 71.2906 307.254 41.0246C254.055 5.01662 236.785 0.161621 226.906 0.161621H199.398C199.129 0.161621 198.867 0.188968 198.621 0.23975C198.609 0.23975 198.593 0.243657 198.582 0.251469C198.285 0.317875 198.011 0.423346 197.742 0.552246C197.715 0.56787 197.675 0.567871 197.64 0.591309C197.601 0.606934 197.566 0.645997 197.527 0.669434C197.297 0.798344 197.09 0.954595 196.894 1.12255C196.855 1.15771 196.804 1.18896 196.769 1.22802C196.55 1.43896 196.367 1.67724 196.203 1.92724C196.164 1.98974 196.129 2.05224 196.09 2.11865C195.972 2.32959 195.879 2.54834 195.804 2.78662C195.781 2.86475 195.754 2.93896 195.73 3.021C195.652 3.32178 195.601 3.62648 195.601 3.9507L195.609 91.1107C182.988 81.3763 167.183 75.5717 150.043 75.5717V83.1381C187.004 83.1381 217.086 113.118 217.266 150.036C217.082 172.048 199.129 189.903 177.075 189.903C165.567 189.903 156.204 199.262 156.204 210.77V248.559C156.204 258.598 148.04 266.766 137.997 266.766C107.559 266.766 82.802 242.008 82.802 211.578L82.8059 150.367C82.8059 113.297 112.966 83.1331 150.04 83.1331V75.5667C108.798 75.5667 75.2349 109.122 75.2349 150.368V178.177L35.5469 207.665C14.9339 214.509 0.00793457 233.97 0.00793457 256.864V311.122C0.00793457 330.712 10.3049 355.204 22.0509 363.544C32.2809 370.813 41.9689 377.29 42.9889 377.954L43.0046 377.965L171.835 461.09L171.811 461.126C172.022 461.251 172.237 461.36 172.448 461.485L172.784 461.704L172.796 461.688C180.839 466.387 189.983 468.883 199.357 468.883C210.927 468.883 222.212 465.047 231.365 458.047C234.572 458.825 237.916 459.25 241.362 459.25C249.498 459.25 257.389 456.93 264.198 452.536C264.248 452.508 264.284 452.461 264.327 452.43L264.338 452.442L315.818 416.715L338.509 430.137V433.492H338.701V430.25L345.962 434.551L345.974 434.535C346.029 434.571 346.08 434.621 346.142 434.653C346.689 434.946 347.294 435.082 347.888 435.082C348.65 435.082 349.408 434.852 350.048 434.406L502.378 328.346C503.398 327.639 504.003 326.483 504.003 325.237L504.007 312.307H504.003C503.992 312.295 503.999 312.284 503.999 312.272L504 312.28ZM493.504 312.378L348.674 413.398L333.604 404.366L337.456 401.691C345.463 396.343 350.69 386.531 351.534 375.605C354.932 373.421 363.132 368.14 369.8 363.695C380.804 356.359 385.929 347.742 385.929 336.582C385.929 329.726 382.026 322.566 374.656 319.305C377.378 308.094 392.75 299.43 395.976 297.727C405.226 292.828 409.421 284.215 406.66 275.762C403.648 266.527 393.68 261.469 384.449 264.477L384.472 264.563C381.074 265.953 377.331 265.953 373.933 264.547C372.445 263.93 371.117 263.07 369.952 262.027L377.781 256.461C378.777 255.754 379.37 254.613 379.37 253.391C379.37 253.121 379.398 246.375 379.437 236.008L493.504 312.378ZM378.364 336.585C378.364 345.104 374.426 351.526 365.602 357.405C360.825 360.592 355.243 364.213 351.231 366.807C349.434 355.127 342.168 345.225 332.153 339.791C335.512 337.545 340.622 334.092 345.524 330.619C352.77 325.49 359.188 325.068 365.672 325.068C369.199 325.064 378.363 327.139 378.363 336.584L378.364 336.585ZM226.904 7.73468C239.119 7.73468 262.611 19.9497 303.076 47.3437C303.115 47.371 303.162 47.3984 303.205 47.4296C348.381 75.4176 372.252 100.36 372.252 119.559C372.252 139.629 371.873 236.439 371.814 251.429L360.349 259.577L359.424 259.956C359.451 260.03 359.49 260.089 359.525 260.159L355.22 263.218V108.948C355.22 107.705 354.611 106.541 353.584 105.834L211.534 7.73235L226.904 7.73468ZM217.119 30.6217C215.959 29.8209 214.455 29.7311 213.209 30.3873C211.959 31.0357 211.181 32.3287 211.181 33.735V107.352C208.779 103.946 206.103 100.739 203.177 97.7817L203.181 11.1607L347.651 110.938V263.288L218.691 173.108C220.113 170.588 221.312 167.932 222.265 165.155L330.695 239.362C331.34 239.803 332.09 240.022 332.836 240.022C333.434 240.022 334.047 239.877 334.602 239.584C335.844 238.928 336.617 237.643 336.617 236.24L336.613 115.14C336.613 113.898 336.004 112.738 334.977 112.027L217.119 30.6217ZM224.838 150.032C224.838 149.918 224.841 149.809 224.841 149.696H224.826C224.736 139.454 222.58 129.7 218.756 120.829V40.9417L329.056 117.118V229.058L224.236 157.324C224.599 155.05 224.802 152.73 224.829 150.363H224.845C224.849 150.257 224.841 150.148 224.841 150.035L224.838 150.032ZM211.822 182.423C212.747 181.45 213.618 180.434 214.458 179.387L349.258 273.645C349.383 273.735 349.516 273.81 349.649 273.88C349.684 273.892 349.711 273.919 349.739 273.931C349.973 274.048 350.215 274.134 350.465 274.192C350.528 274.208 350.582 274.228 350.645 274.235C350.903 274.29 351.161 274.329 351.422 274.329C351.684 274.329 351.954 274.29 352.223 274.235C352.278 274.224 352.336 274.212 352.387 274.196C352.645 274.13 352.895 274.032 353.145 273.911C353.149 273.907 353.161 273.907 353.168 273.899C353.184 273.888 353.204 273.876 353.219 273.864C353.348 273.79 353.481 273.724 353.61 273.63L363.669 266.485C365.712 268.646 368.2 270.376 371.028 271.548C373.665 272.634 376.43 273.177 379.204 273.177C381.997 273.177 384.786 272.622 387.434 271.524L387.431 271.509C392.505 270.22 397.798 273.067 399.451 278.118C401.826 285.403 394.669 289.848 392.415 291.044C387.146 293.837 370.677 303.56 367.27 317.575C366.739 317.54 366.208 317.497 365.645 317.497C358.528 317.497 350.176 318.036 341.129 324.442C333.008 330.189 324.262 335.934 324.176 335.989L324.684 336.763C321.442 335.833 318.024 335.329 314.485 335.329C306.778 335.329 299.387 337.665 293.047 342.134L262.801 364.306C261.028 351.408 256.59 339.009 249.696 327.9C249.634 327.806 249.571 327.716 249.505 327.626C245.692 322.541 237.943 314.255 228.97 304.661C221.431 296.607 211.419 285.892 203.15 276.142L280.322 332.789C280.99 333.278 281.779 333.524 282.556 333.524C283.294 333.524 284.033 333.313 284.673 332.875L332.364 300.738C333.396 300.039 334.017 298.883 334.032 297.637C334.044 296.395 333.45 295.223 332.427 294.5L211.817 209.402L211.822 182.423ZM205.962 234.345L301.482 301.361C302.142 301.826 302.9 302.048 303.65 302.048C304.838 302.048 306.013 301.482 306.752 300.435C307.955 298.72 307.541 296.365 305.826 295.165L209.017 227.239C210.013 224.349 210.763 221.349 211.236 218.247L323.616 297.509L282.686 325.095L188.721 256.126C188.381 255.364 188.131 254.665 187.982 254.044C190.01 252.739 191.943 251.294 193.76 249.728L285.686 314.224C286.346 314.689 287.104 314.911 287.858 314.911C289.045 314.911 290.221 314.345 290.959 313.298C292.158 311.583 291.748 309.22 290.034 308.028L199.202 244.294C201.827 241.263 204.1 237.923 205.967 234.345H205.962ZM163.778 248.548V210.759C163.778 203.423 169.747 197.458 177.079 197.458C187.165 197.458 196.532 194.305 204.255 188.938V210.446C204.255 233.833 186.028 253.024 163.032 254.591C163.497 252.654 163.778 250.63 163.778 248.548ZM75.2351 187.607V205.033H51.8211H51.7782L75.2351 187.607ZM260.105 446.157C260.101 446.161 260.09 446.161 260.082 446.168C254.5 449.77 248.023 451.672 241.352 451.672C222.278 451.672 206.762 436.16 206.762 417.082V380.605C206.762 378.512 205.07 376.82 202.977 376.82C200.887 376.82 199.195 378.512 199.195 380.605V417.082C199.195 433.59 208.738 447.906 222.593 454.82C215.609 459.008 207.57 461.301 199.355 461.301C191.258 461.301 183.355 459.129 176.429 455.039L47.1193 371.617C46.1154 370.957 36.5643 364.574 26.4283 357.371C17.7095 351.184 7.57331 329.629 7.57331 311.121V256.863C7.57331 232.457 27.4253 212.605 51.8313 212.605H75.2723C75.8387 246.738 103.752 274.328 138.01 274.328C147.323 274.328 155.471 269.344 160.002 261.926V262.278C167.592 262.278 174.799 260.621 181.299 257.68C185.483 268.618 201.752 286.586 223.471 309.817C232.217 319.165 239.78 327.251 243.385 332.016C251.733 345.547 256.147 361.129 256.147 377.106V377.297H256.151C256.167 377.618 256.237 377.918 256.323 378.211C257.37 385.11 263.319 390.418 270.503 390.418C272.597 390.418 274.288 388.723 274.288 386.633C274.288 384.543 272.597 382.848 270.503 382.848C266.769 382.848 263.714 379.801 263.714 376.059V375.442H263.698C263.687 374.653 263.655 373.868 263.62 373.082L297.487 348.262C302.487 344.739 308.366 342.88 314.507 342.88C330.827 342.88 344.097 356.153 344.097 372.466C344.097 381.993 339.836 390.986 333.187 395.427L260.105 446.157ZM326.773 409.098L344.093 419.481V424.656L322.644 411.965L326.773 409.098ZM351.668 424.043V420.539L496.438 319.569V323.26L351.668 424.043Z" fill="black"/>
</svg>
