<?xml version="1.0" encoding="UTF-8"?><svg id="a" xmlns="http://www.w3.org/2000/svg" xmlns:xlink="http://www.w3.org/1999/xlink" viewBox="0 0 374.34 367.91"><defs><style>.c{fill:url(#b);}</style><linearGradient id="b" x1="0" y1="183.95" x2="374.34" y2="183.95" gradientTransform="matrix(1, 0, 0, 1, 0, 0)" gradientUnits="userSpaceOnUse"><stop offset="0" stop-color="#0071bc"/><stop offset="1" stop-color="blue"/></linearGradient></defs><path class="c" d="M374.34,207.22c-.13-55.92,.1-111.85-.11-167.77-.1-26.52-13.16-39.25-40.12-39.34-48.93-.17-97.87-.05-146.8-.05C137.74,.06,88.17-.11,38.6,.13,13.72,.25,.31,12.98,.17,37.24-.06,77.92-.01,118.61,.06,159.29c-.02,.46-.06,.92-.06,1.39,.13,55.92-.1,111.85,.11,167.77,.1,26.52,13.16,39.25,40.12,39.34,48.93,.17,97.87,.05,146.8,.05,49.57,0,99.14,.17,148.71-.07,24.89-.12,38.29-12.85,38.43-37.11,.23-40.68,.18-81.37,.11-122.05,.02-.46,.06-.92,.06-1.39Z"/></svg>