<?xml version="1.0" encoding="UTF-8"?><svg id="a" xmlns="http://www.w3.org/2000/svg" viewBox="0 0 438.03 465.38"><defs><style>.b{fill:#fff;}.c{fill:#2e3192;}</style></defs><rect class="b" x="62.09" y="236.07" width="292.21" height="151.95"/><path class="c" d="M437.85,218.8c-.03-21.18-7.91-39.57-23.25-53.71-55.17-50.88-110.5-101.61-166.51-151.56-21.02-18.74-38.1-17.73-59.29,1.28C134.58,63.45,80.55,112.3,26.81,161.46,9.03,177.73-.06,198.37,0,222.91c.16,65.44-.12,130.88,.12,196.32,.11,31.04,15.4,45.93,46.95,46.03,57.26,.2,114.52,.06,171.78,.05,58,0,116.01,.2,174.01-.08,29.12-.14,44.81-15.04,44.97-43.42,.38-67.67,.12-135.34,.02-203.01Zm-241.86,98.88c0,40.67-24.17,60.62-56.31,60.62s-55.62-20.14-55.62-59.66v-69.06c0-4.24,3.43-7.67,7.67-7.67h22.49c4.23,0,7.67,3.43,7.67,7.67v68.29c0,21.87,12.3,25.52,18.14,25.52s18.14-3.27,18.14-24.56v-69.25c0-4.24,3.43-7.67,7.67-7.67h22.49c4.24,0,7.67,3.43,7.67,7.67v68.1Zm157.26,54.71c1.75,2.54-.07,6.01-3.16,6.01h-32.6c-3.97,0-7.66-2.05-9.76-5.42l-22.58-28.54-24.46,28.85c-2.14,3.19-5.72,5.1-9.56,5.1h-32.11c-3.09,0-4.91-3.46-3.16-6.01l40.81-61.94-40.84-62.64c-1.74-2.54,.08-6,3.16-6h34.77c3.9,0,7.53,1.97,9.65,5.24l21.8,28.94,21.5-28.89c2.11-3.3,5.76-5.3,9.68-5.3h33.74c3.08,0,4.91,3.45,3.16,6l-40.74,62.56,40.69,62.02Z"/></svg>