<?xml version="1.0" encoding="UTF-8"?><svg id="a" xmlns="http://www.w3.org/2000/svg" xmlns:xlink="http://www.w3.org/1999/xlink" viewBox="0 0 352.22 374.22"><defs><style>.c{fill:url(#b);}</style><linearGradient id="b" x1="0" y1="187.11" x2="352.22" y2="187.11" gradientTransform="matrix(1, 0, 0, 1, 0, 0)" gradientUnits="userSpaceOnUse"><stop offset="0" stop-color="#0071bc"/><stop offset="1" stop-color="blue"/></linearGradient></defs><path class="c" d="M.15,198.28c.03,17.03,6.36,31.81,18.7,43.19,44.37,40.91,88.85,81.7,133.89,121.87,16.9,15.07,30.64,14.26,47.68-1.03,43.59-39.11,87.04-78.39,130.25-117.92,14.3-13.08,21.6-29.68,21.56-49.41-.13-52.62,.09-105.24-.1-157.86-.09-24.96-12.38-36.93-37.75-37.02-46.04-.16-92.08-.04-138.13-.04-46.64,0-93.28-.16-139.92,.07C12.9,.24,.29,12.21,.16,35.04c-.3,54.41-.1,108.83-.01,163.24Z"/></svg>