<?xml version="1.0" encoding="UTF-8"?><svg id="a" xmlns="http://www.w3.org/2000/svg" viewBox="0 0 1476.21 346.31"><defs><style>.b{fill:none;stroke:#22ddac;stroke-miterlimit:10;stroke-width:3.88px;}</style></defs><path class="b" d="M1474.81,211.43c-66.18,68.42-148.87,113.87-235.47,129.44-22.11,3.97-45.09,5.97-66.48-1.78-32.51-11.78-57.14-45.04-70.93-82.08-13.79-37.04-18.22-77.94-21.92-118.23-2.67-29.14-5.35-59.44-18.2-84.42-23.51-45.68-75.68-60.25-119.53-48.57-43.86,11.69-81.53,43.99-118.13,75.08-78.38,66.56-161.2,132.53-255.89,152.87-29.95,6.43-61.18,8.05-90.52-1.62-33.55-11.05-62.43-35.97-92.67-56.51-59.8-40.6-128.19-65.13-196.96-62.66S50.39,146.22,1.48,203.95"/></svg>