<?xml version="1.0" encoding="UTF-8"?><svg id="a" xmlns="http://www.w3.org/2000/svg" viewBox="0 0 1518.68 173.86"><defs><style>.b{fill:none;stroke:#22ddac;stroke-miterlimit:10;stroke-width:3.88px;}</style></defs><path class="b" d="M1517.82,105.93c-68.14,33.96-153.26,56.52-242.42,64.25-22.76,1.97-46.43,2.96-68.45-.89-33.47-5.85-58.82-22.36-73.02-40.74-14.2-18.39-18.76-38.69-22.57-58.69-2.75-14.46-5.5-29.5-18.74-41.9-24.2-22.68-77.91-29.91-123.06-24.11-45.15,5.8-83.93,21.84-121.62,37.27-80.7,33.04-165.96,65.79-263.45,75.88-30.84,3.19-62.99,3.99-93.19-.8-34.54-5.49-64.27-17.85-95.41-28.05-61.57-20.16-131.97-32.33-202.78-31.1C122.29,58.27,51.32,73.56,.96,102.21"/></svg>